<svg xmlns="http://www.w3.org/2000/svg" viewBox="0 0 980 720" role="img" aria-labelledby="title desc">
  <title id="title">Drop Four asset preview</title>
  <desc id="desc">Preview board with example chips, highlight ring, coach bubble, crown, badge, and confetti.</desc>
  <defs>
    <linearGradient id="bgGrad" x1="0" x2="0" y1="0" y2="1">
      <stop offset="0%" stop-color="#0D1320"/>
      <stop offset="100%" stop-color="#09111A"/>
    </linearGradient>
    <linearGradient id="frameGrad" x1="0" x2="0" y1="0" y2="1">
      <stop offset="0%" stop-color="#1F4A73"/>
      <stop offset="100%" stop-color="#16324F"/>
    </linearGradient>
    <radialGradient id="humanGrad" cx="35%" cy="30%" r="70%">
      <stop offset="0%" stop-color="#FF8A5B"/>
      <stop offset="100%" stop-color="#FF5D6C"/>
    </radialGradient>
    <radialGradient id="cpuGrad" cx="35%" cy="30%" r="70%">
      <stop offset="0%" stop-color="#8FA8FF"/>
      <stop offset="100%" stop-color="#5E6CFF"/>
    </radialGradient>
    <mask id="holes">
      <rect width="100%" height="100%" fill="white"/>
      <circle cx="90" cy="110" r="34" fill="black"/><circle cx="190" cy="110" r="34" fill="black"/><circle cx="290" cy="110" r="34" fill="black"/><circle cx="390" cy="110" r="34" fill="black"/><circle cx="490" cy="110" r="34" fill="black"/><circle cx="590" cy="110" r="34" fill="black"/><circle cx="690" cy="110" r="34" fill="black"/><circle cx="90" cy="200" r="34" fill="black"/><circle cx="190" cy="200" r="34" fill="black"/><circle cx="290" cy="200" r="34" fill="black"/><circle cx="390" cy="200" r="34" fill="black"/><circle cx="490" cy="200" r="34" fill="black"/><circle cx="590" cy="200" r="34" fill="black"/><circle cx="690" cy="200" r="34" fill="black"/><circle cx="90" cy="290" r="34" fill="black"/><circle cx="190" cy="290" r="34" fill="black"/><circle cx="290" cy="290" r="34" fill="black"/><circle cx="390" cy="290" r="34" fill="black"/><circle cx="490" cy="290" r="34" fill="black"/><circle cx="590" cy="290" r="34" fill="black"/><circle cx="690" cy="290" r="34" fill="black"/><circle cx="90" cy="380" r="34" fill="black"/><circle cx="190" cy="380" r="34" fill="black"/><circle cx="290" cy="380" r="34" fill="black"/><circle cx="390" cy="380" r="34" fill="black"/><circle cx="490" cy="380" r="34" fill="black"/><circle cx="590" cy="380" r="34" fill="black"/><circle cx="690" cy="380" r="34" fill="black"/><circle cx="90" cy="470" r="34" fill="black"/><circle cx="190" cy="470" r="34" fill="black"/><circle cx="290" cy="470" r="34" fill="black"/><circle cx="390" cy="470" r="34" fill="black"/><circle cx="490" cy="470" r="34" fill="black"/><circle cx="590" cy="470" r="34" fill="black"/><circle cx="690" cy="470" r="34" fill="black"/><circle cx="90" cy="560" r="34" fill="black"/><circle cx="190" cy="560" r="34" fill="black"/><circle cx="290" cy="560" r="34" fill="black"/><circle cx="390" cy="560" r="34" fill="black"/><circle cx="490" cy="560" r="34" fill="black"/><circle cx="590" cy="560" r="34" fill="black"/><circle cx="690" cy="560" r="34" fill="black"/>
    </mask>
  </defs>
  <rect width="100%" height="100%" fill="url(#bgGrad)"/>
  <g transform="translate(60 30)">
    <!-- tokens behind board -->
    <g>
      <g transform="translate(390 560)"><circle cx="0" cy="0" r="30" fill="url(#humanGrad)"/><path d="M-16 10 L-1 -12" stroke="#fff" stroke-opacity="0.6" stroke-width="5" stroke-linecap="round"/><path d="M-2 15 L13 -7" stroke="#fff" stroke-opacity="0.48" stroke-width="5" stroke-linecap="round"/></g><g transform="translate(390 470)"><circle cx="0" cy="0" r="30" fill="url(#humanGrad)"/><path d="M-16 10 L-1 -12" stroke="#fff" stroke-opacity="0.6" stroke-width="5" stroke-linecap="round"/><path d="M-2 15 L13 -7" stroke="#fff" stroke-opacity="0.48" stroke-width="5" stroke-linecap="round"/></g><g transform="translate(390 380)"><circle cx="0" cy="0" r="30" fill="url(#humanGrad)"/><path d="M-16 10 L-1 -12" stroke="#fff" stroke-opacity="0.6" stroke-width="5" stroke-linecap="round"/><path d="M-2 15 L13 -7" stroke="#fff" stroke-opacity="0.48" stroke-width="5" stroke-linecap="round"/></g><g transform="translate(290 560)"><circle cx="0" cy="0" r="30" fill="url(#humanGrad)"/><path d="M-16 10 L-1 -12" stroke="#fff" stroke-opacity="0.6" stroke-width="5" stroke-linecap="round"/><path d="M-2 15 L13 -7" stroke="#fff" stroke-opacity="0.48" stroke-width="5" stroke-linecap="round"/></g><g transform="translate(490 560)"><circle cx="0" cy="0" r="30" fill="url(#humanGrad)"/><path d="M-16 10 L-1 -12" stroke="#fff" stroke-opacity="0.6" stroke-width="5" stroke-linecap="round"/><path d="M-2 15 L13 -7" stroke="#fff" stroke-opacity="0.48" stroke-width="5" stroke-linecap="round"/></g><g transform="translate(490 470)"><circle cx="0" cy="0" r="30" fill="url(#humanGrad)"/><path d="M-16 10 L-1 -12" stroke="#fff" stroke-opacity="0.6" stroke-width="5" stroke-linecap="round"/><path d="M-2 15 L13 -7" stroke="#fff" stroke-opacity="0.48" stroke-width="5" stroke-linecap="round"/></g><g transform="translate(590 560)"><circle cx="0" cy="0" r="30" fill="url(#humanGrad)"/><path d="M-16 10 L-1 -12" stroke="#fff" stroke-opacity="0.6" stroke-width="5" stroke-linecap="round"/><path d="M-2 15 L13 -7" stroke="#fff" stroke-opacity="0.48" stroke-width="5" stroke-linecap="round"/></g>
      <g transform="translate(290 470)"><circle cx="0" cy="0" r="30" fill="url(#cpuGrad)"/><circle cx="0" cy="0" r="21" fill="none" stroke="#fff" stroke-opacity="0.25" stroke-width="2"/><circle cx="0" cy="-14" r="3.5" fill="#fff" fill-opacity="0.35"/><circle cx="0" cy="0" r="5.5" fill="#fff" fill-opacity="0.55"/></g><g transform="translate(490 380)"><circle cx="0" cy="0" r="30" fill="url(#cpuGrad)"/><circle cx="0" cy="0" r="21" fill="none" stroke="#fff" stroke-opacity="0.25" stroke-width="2"/><circle cx="0" cy="-14" r="3.5" fill="#fff" fill-opacity="0.35"/><circle cx="0" cy="0" r="5.5" fill="#fff" fill-opacity="0.55"/></g><g transform="translate(590 470)"><circle cx="0" cy="0" r="30" fill="url(#cpuGrad)"/><circle cx="0" cy="0" r="21" fill="none" stroke="#fff" stroke-opacity="0.25" stroke-width="2"/><circle cx="0" cy="-14" r="3.5" fill="#fff" fill-opacity="0.35"/><circle cx="0" cy="0" r="5.5" fill="#fff" fill-opacity="0.55"/></g><g transform="translate(190 560)"><circle cx="0" cy="0" r="30" fill="url(#cpuGrad)"/><circle cx="0" cy="0" r="21" fill="none" stroke="#fff" stroke-opacity="0.25" stroke-width="2"/><circle cx="0" cy="-14" r="3.5" fill="#fff" fill-opacity="0.35"/><circle cx="0" cy="0" r="5.5" fill="#fff" fill-opacity="0.55"/></g><g transform="translate(190 470)"><circle cx="0" cy="0" r="30" fill="url(#cpuGrad)"/><circle cx="0" cy="0" r="21" fill="none" stroke="#fff" stroke-opacity="0.25" stroke-width="2"/><circle cx="0" cy="-14" r="3.5" fill="#fff" fill-opacity="0.35"/><circle cx="0" cy="0" r="5.5" fill="#fff" fill-opacity="0.55"/></g><g transform="translate(90 560)"><circle cx="0" cy="0" r="30" fill="url(#cpuGrad)"/><circle cx="0" cy="0" r="21" fill="none" stroke="#fff" stroke-opacity="0.25" stroke-width="2"/><circle cx="0" cy="-14" r="3.5" fill="#fff" fill-opacity="0.35"/><circle cx="0" cy="0" r="5.5" fill="#fff" fill-opacity="0.55"/></g>
    </g>
    <!-- board frame -->
    <g>
      <rect x="20" y="20" width="740" height="640" rx="44" fill="url(#frameGrad)" mask="url(#holes)"/>
      <rect x="20" y="20" width="740" height="640" rx="44" fill="none" stroke="#7FDBFF" stroke-opacity="0.18" stroke-width="3"/>
      <g fill="#09111C" opacity="0.92">
        <circle cx="90" cy="110" r="30"/><circle cx="190" cy="110" r="30"/><circle cx="290" cy="110" r="30"/><circle cx="390" cy="110" r="30"/><circle cx="490" cy="110" r="30"/><circle cx="590" cy="110" r="30"/><circle cx="690" cy="110" r="30"/><circle cx="90" cy="200" r="30"/><circle cx="190" cy="200" r="30"/><circle cx="290" cy="200" r="30"/><circle cx="390" cy="200" r="30"/><circle cx="490" cy="200" r="30"/><circle cx="590" cy="200" r="30"/><circle cx="690" cy="200" r="30"/><circle cx="90" cy="290" r="30"/><circle cx="190" cy="290" r="30"/><circle cx="290" cy="290" r="30"/><circle cx="390" cy="290" r="30"/><circle cx="490" cy="290" r="30"/><circle cx="590" cy="290" r="30"/><circle cx="690" cy="290" r="30"/><circle cx="90" cy="380" r="30"/><circle cx="190" cy="380" r="30"/><circle cx="290" cy="380" r="30"/><circle cx="390" cy="380" r="30"/><circle cx="490" cy="380" r="30"/><circle cx="590" cy="380" r="30"/><circle cx="690" cy="380" r="30"/><circle cx="90" cy="470" r="30"/><circle cx="190" cy="470" r="30"/><circle cx="290" cy="470" r="30"/><circle cx="390" cy="470" r="30"/><circle cx="490" cy="470" r="30"/><circle cx="590" cy="470" r="30"/><circle cx="690" cy="470" r="30"/><circle cx="90" cy="560" r="30"/><circle cx="190" cy="560" r="30"/><circle cx="290" cy="560" r="30"/><circle cx="390" cy="560" r="30"/><circle cx="490" cy="560" r="30"/><circle cx="590" cy="560" r="30"/><circle cx="690" cy="560" r="30"/>
      </g>
      <g fill="none" stroke="#ffffff" stroke-opacity="0.08">
        <circle cx="90" cy="110" r="34"/><circle cx="190" cy="110" r="34"/><circle cx="290" cy="110" r="34"/><circle cx="390" cy="110" r="34"/><circle cx="490" cy="110" r="34"/><circle cx="590" cy="110" r="34"/><circle cx="690" cy="110" r="34"/><circle cx="90" cy="200" r="34"/><circle cx="190" cy="200" r="34"/><circle cx="290" cy="200" r="34"/><circle cx="390" cy="200" r="34"/><circle cx="490" cy="200" r="34"/><circle cx="590" cy="200" r="34"/><circle cx="690" cy="200" r="34"/><circle cx="90" cy="290" r="34"/><circle cx="190" cy="290" r="34"/><circle cx="290" cy="290" r="34"/><circle cx="390" cy="290" r="34"/><circle cx="490" cy="290" r="34"/><circle cx="590" cy="290" r="34"/><circle cx="690" cy="290" r="34"/><circle cx="90" cy="380" r="34"/><circle cx="190" cy="380" r="34"/><circle cx="290" cy="380" r="34"/><circle cx="390" cy="380" r="34"/><circle cx="490" cy="380" r="34"/><circle cx="590" cy="380" r="34"/><circle cx="690" cy="380" r="34"/><circle cx="90" cy="470" r="34"/><circle cx="190" cy="470" r="34"/><circle cx="290" cy="470" r="34"/><circle cx="390" cy="470" r="34"/><circle cx="490" cy="470" r="34"/><circle cx="590" cy="470" r="34"/><circle cx="690" cy="470" r="34"/><circle cx="90" cy="560" r="34"/><circle cx="190" cy="560" r="34"/><circle cx="290" cy="560" r="34"/><circle cx="390" cy="560" r="34"/><circle cx="490" cy="560" r="34"/><circle cx="590" cy="560" r="34"/><circle cx="690" cy="560" r="34"/>
      </g>
    </g>
    <!-- selection ring -->
    <g transform="translate(390 110)">
      <circle cx="0" cy="0" r="36" fill="none" stroke="#71F7D5" stroke-width="4" stroke-opacity="0.9"/>
      <circle cx="0" cy="0" r="28" fill="none" stroke="#fff" stroke-opacity="0.45" stroke-width="2" stroke-dasharray="6 6"/>
    </g>
    <!-- win line -->
    <line x1="390" y1="110" x2="390" y2="380" stroke="#71F7D5" stroke-width="10" stroke-linecap="round" stroke-opacity="0.75"/>
    <!-- coach bubble -->
    <g transform="translate(790 20)">
      <path d="M24 16 H296 A16 16 0 0 1 312 32 V116 A16 16 0 0 1 296 132 H108 L78 160 L80 132 H24 A16 16 0 0 1 8 116 V32 A16 16 0 0 1 24 16 Z"
        fill="#0C1728" stroke="#78E7FF" stroke-opacity="0.3" stroke-width="2"/>
      <circle cx="42" cy="42" r="16" fill="#71F7D5" opacity="0.9"/>
      <path d="M42 30 L45.5 38.5 L54 42 L45.5 45.5 L42 54 L38.5 45.5 L30 42 L38.5 38.5 Z" fill="#08222A"/>
      <rect x="70" y="34" width="180" height="8" rx="4" fill="#F6F8FC" fill-opacity="0.9"/>
      <rect x="70" y="56" width="208" height="6" rx="3" fill="#C7D8EA" fill-opacity="0.48"/>
      <rect x="70" y="72" width="188" height="6" rx="3" fill="#C7D8EA" fill-opacity="0.48"/>
      <rect x="70" y="88" width="164" height="6" rx="3" fill="#C7D8EA" fill-opacity="0.48"/>
    </g>
    <!-- crown and badge -->
    <g transform="translate(822 240)">
      <path d="M18 72 L26 28 L52 52 L64 16 L76 52 L102 28 L110 72 Z" fill="url(#humanGrad)" opacity="0"/>
      <path d="M18 72 L26 28 L52 52 L64 16 L76 52 L102 28 L110 72 Z" fill="url(#bgGrad)" opacity="0"/>
      <path d="M18 72 L26 28 L52 52 L64 16 L76 52 L102 28 L110 72 Z" fill="#FFD46B" stroke="#FFF4D3" stroke-opacity="0.7" stroke-width="3" stroke-linejoin="round"/>
      <rect x="18" y="70" width="92" height="12" rx="6" fill="#8A5A12"/>
    </g>
    <g transform="translate(834 344)">
      <circle cx="60" cy="60" r="50" fill="#0A1424" stroke="#7FDBFF" stroke-opacity="0.28" stroke-width="3"/>
      <path d="M60 22 L69 46 L94 47 L74 62 L81 86 L60 72 L39 86 L46 62 L26 47 L51 46 Z"
            fill="#FFD46B" stroke="#FFF4D3" stroke-opacity="0.75" stroke-width="2" stroke-linejoin="round"/>
    </g>
    <!-- confetti -->
    <g transform="translate(850 140)">
      <rect x="-4" y="-34" width="8" height="16" rx="2" fill="#FF8A5B"/>
      <rect x="28" y="-28" width="8" height="16" rx="2" fill="#8FA8FF" transform="rotate(35 32 -20)"/>
      <rect x="46" y="4" width="8" height="16" rx="2" fill="#FFD46B" transform="rotate(90 50 12)"/>
      <rect x="24" y="30" width="8" height="16" rx="2" fill="#71F7D5" transform="rotate(130 28 38)"/>
      <rect x="-6" y="40" width="8" height="16" rx="2" fill="#ffffff" opacity="0.8" transform="rotate(180 -2 48)"/>
      <rect x="-38" y="28" width="8" height="16" rx="2" fill="#FF5D6C" transform="rotate(220 -34 36)"/>
      <rect x="-50" y="0" width="8" height="16" rx="2" fill="#5E6CFF" transform="rotate(270 -46 8)"/>
      <rect x="-30" y="-28" width="8" height="16" rx="2" fill="#FFB84D" transform="rotate(315 -26 -20)"/>
    </g>
  </g>
</svg>