<svg xmlns="http://www.w3.org/2000/svg" viewBox="0 0 320 180" role="img" aria-labelledby="title desc">
  <title id="title">Coach bubble</title>
  <desc id="desc">Rounded speech bubble panel for hints and lesson prompts.</desc>
  <defs>
    <linearGradient id="bubbleGrad" x1="0" x2="0" y1="0" y2="1">
      <stop offset="0%" stop-color="#132238"/>
      <stop offset="100%" stop-color="#0C1728"/>
    </linearGradient>
  </defs>
  <path d="M24 16 H296 A16 16 0 0 1 312 32 V116 A16 16 0 0 1 296 132 H108 L78 160 L80 132 H24 A16 16 0 0 1 8 116 V32 A16 16 0 0 1 24 16 Z"
        fill="url(#bubbleGrad)" stroke="#78E7FF" stroke-opacity="0.3" stroke-width="2"/>
  <circle cx="42" cy="42" r="16" fill="#71F7D5" opacity="0.9"/>
  <path d="M42 30 L45.5 38.5 L54 42 L45.5 45.5 L42 54 L38.5 45.5 L30 42 L38.5 38.5 Z" fill="#08222A"/>
  <rect x="70" y="34" width="180" height="8" rx="4" fill="#F6F8FC" fill-opacity="0.9"/>
  <rect x="70" y="56" width="208" height="6" rx="3" fill="#C7D8EA" fill-opacity="0.48"/>
  <rect x="70" y="72" width="188" height="6" rx="3" fill="#C7D8EA" fill-opacity="0.48"/>
  <rect x="70" y="88" width="164" height="6" rx="3" fill="#C7D8EA" fill-opacity="0.48"/>
</svg>